<svg width="36" height="37" viewBox="0 0 36 37" fill="none" xmlns="http://www.w3.org/2000/svg">
<path d="M32.49 15.6734L31.02 21.9434C29.76 27.3584 27.27 29.5484 22.59 29.0984C21.84 29.0384 21.03 28.9034 20.16 28.6934L17.64 28.0934C11.385 26.6084 9.45003 23.5184 10.92 17.2484L12.39 10.9634C12.69 9.68844 13.05 8.57844 13.5 7.66344C15.255 4.03344 18.24 3.05844 23.25 4.24344L25.755 4.82844C32.04 6.29844 33.96 9.40344 32.49 15.6734Z" stroke="#1B7BD7" stroke-width="2" stroke-linecap="round" stroke-linejoin="round"/>
<path d="M22.59 29.0991C21.66 29.7291 20.49 30.2541 19.065 30.7191L16.695 31.4991C10.74 33.4191 7.60502 31.8141 5.67002 25.8591L3.75002 19.9341C1.83002 13.9791 3.42002 10.8291 9.37502 8.90906L11.745 8.12906C12.36 7.93406 12.945 7.76906 13.5 7.66406C13.05 8.57906 12.69 9.68906 12.39 10.9641L10.92 17.2491C9.45002 23.5191 11.385 26.6091 17.64 28.0941L20.16 28.6941C21.03 28.9041 21.84 29.0391 22.59 29.0991Z" stroke="#1B7BD7" stroke-width="2" stroke-linecap="round" stroke-linejoin="round"/>
<path d="M18.5373 15.9097L19.8018 17.6526C20.1714 18.162 20.8886 18.2761 21.3943 17.9296L26.1157 14.7908" stroke="#1B7BD7" stroke-width="2" stroke-linecap="round" stroke-linejoin="round"/>
</svg>
