<svg width="36" height="37" viewBox="0 0 36 37" fill="none" xmlns="http://www.w3.org/2000/svg">
<path d="M32.5049 21.4715L31.9049 28.9715C31.6799 31.2665 31.4999 33.0215 27.4349 33.0215H8.56489C4.49989 33.0215 4.31989 31.2665 4.09489 28.9715L3.49489 21.4715C3.37489 20.2265 3.76489 19.0715 4.46989 18.1865C4.48489 18.1715 4.48489 18.1715 4.49989 18.1565C5.32489 17.1515 6.56989 16.5215 7.96489 16.5215H28.0349C29.4299 16.5215 30.6599 17.1515 31.4699 18.1265C31.4849 18.1415 31.4999 18.1565 31.4999 18.1715C32.2349 19.0565 32.6399 20.2115 32.5049 21.4715Z" stroke="#1B7BD7" stroke-width="2" stroke-miterlimit="10"/>
<path d="M5.25 17.1664V9.44141C5.25 4.34141 6.525 3.06641 11.625 3.06641H13.53C15.435 3.06641 15.87 3.63641 16.59 4.59641L18.495 7.14641C18.975 7.77641 19.26 8.16641 20.535 8.16641H24.36C29.46 8.16641 30.735 9.44141 30.735 14.5414V17.2264" stroke="#1B7BD7" stroke-width="2" stroke-miterlimit="10" stroke-linecap="round" stroke-linejoin="round"/>
<path d="M14.145 25.5215H21.855" stroke="#1B7BD7" stroke-width="2" stroke-miterlimit="10" stroke-linecap="round" stroke-linejoin="round"/>
</svg>
