<svg width="36" height="37" viewBox="0 0 36 37" fill="none" xmlns="http://www.w3.org/2000/svg">
<path d="M30 12.3848V27.0098C30 31.5098 27.315 33.0098 24 33.0098H12C8.685 33.0098 6 31.5098 6 27.0098V12.3848C6 7.50977 8.685 6.38477 12 6.38477C12 7.31477 12.375 8.15476 12.99 8.76976C13.605 9.38476 14.445 9.75977 15.375 9.75977H20.625C22.485 9.75977 24 8.24477 24 6.38477C27.315 6.38477 30 7.50977 30 12.3848Z" stroke="#1B7BD7" stroke-width="2" stroke-linecap="round" stroke-linejoin="round"/>
<path d="M24 6.38477C24 8.24477 22.485 9.75977 20.625 9.75977H15.375C14.445 9.75977 13.605 9.38476 12.99 8.76976C12.375 8.15476 12 7.31477 12 6.38477C12 4.52477 13.515 3.00977 15.375 3.00977H20.625C21.555 3.00977 22.395 3.38477 23.01 3.99977C23.625 4.61477 24 5.45477 24 6.38477Z" stroke="#1B7BD7" stroke-width="2" stroke-linecap="round" stroke-linejoin="round"/>
<path d="M12 19.5098H18" stroke="#1B7BD7" stroke-width="2" stroke-linecap="round" stroke-linejoin="round"/>
<path d="M12 25.5098H24" stroke="#1B7BD7" stroke-width="2" stroke-linecap="round" stroke-linejoin="round"/>
</svg>
