<svg width="164" height="141" viewBox="0 0 164 141" fill="none" xmlns="http://www.w3.org/2000/svg">
<path opacity="0.7" d="M162.312 35.3292L98.9806 53.4127L84.0316 43.2803L162.312 35.3292Z" fill="#2092FF"/>
<path opacity="0.7" d="M114.265 67.0385L109.655 62.1214L162.312 35.3283L125.897 79.4357L114.265 67.0385Z" fill="#2092FF"/>
<path opacity="0.7" d="M105.543 72.7566L109.654 62.125L114.264 67.0421L105.543 72.7566Z" fill="#2092FF"/>
<path opacity="0.7" d="M105.544 72.7547L98.9807 53.4134L162.312 35.33L109.655 62.1231L105.544 72.7547Z" fill="#1B7BD7"/>
<path d="M20.074 127.557C19.8867 127.395 19.7692 127.168 19.7473 126.926C19.7255 126.683 19.801 126.446 19.9573 126.265C20.1052 126.093 20.315 125.985 20.5447 125.963C20.7744 125.941 21.0072 126.006 21.1964 126.145L21.274 126.213C22.3781 127.117 23.5913 127.878 24.8828 128.477C24.9939 128.529 25.0942 128.603 25.1779 128.693C25.2616 128.783 25.3272 128.888 25.3708 129.002C25.4143 129.117 25.4351 129.237 25.4318 129.358C25.4285 129.478 25.4013 129.596 25.3517 129.704C25.2527 129.92 25.0707 130.086 24.8451 130.165C24.6195 130.244 24.3686 130.231 24.1466 130.127C22.7177 129.458 21.3731 128.615 20.1446 127.618L20.074 127.557ZM16.7027 124.319L16.6038 124.233C15.5416 123.037 14.5887 121.75 13.7572 120.389C13.6843 120.284 13.6334 120.166 13.6075 120.043C13.5816 119.919 13.5814 119.793 13.6068 119.671C13.6322 119.549 13.6826 119.435 13.7551 119.335C13.8275 119.235 13.9204 119.151 14.0279 119.09C14.1355 119.028 14.2554 118.99 14.3802 118.977C14.505 118.964 14.6321 118.976 14.7535 119.014C14.8749 119.052 14.9881 119.114 15.0861 119.196C15.1841 119.278 15.2648 119.379 15.3231 119.492C16.0895 120.748 16.968 121.934 17.9474 123.037C18.1109 123.223 18.1958 123.463 18.1834 123.705C18.1711 123.946 18.0625 124.17 17.8816 124.326C17.7226 124.461 17.5198 124.535 17.3074 124.536C17.0951 124.537 16.8864 124.464 16.7168 124.331L16.7027 124.319ZM28.2179 131.386C28.0632 131.252 27.9553 131.073 27.9106 130.876C27.866 130.679 27.8871 130.475 27.9707 130.296C28.0543 130.116 28.1959 129.971 28.3735 129.883C28.5512 129.795 28.7552 129.768 28.9541 129.807C30.3797 130.096 31.8283 130.222 33.2712 130.182C33.515 130.176 33.7544 130.268 33.9368 130.436C34.1192 130.603 34.2296 130.834 34.2438 131.077C34.2579 131.32 34.1746 131.555 34.0123 131.731C33.8499 131.906 33.6217 132.008 33.3779 132.014C31.7986 132.056 30.2132 131.916 28.6535 131.596C28.4926 131.568 28.3415 131.495 28.2179 131.386ZM11.9751 116.513C11.8507 116.406 11.7554 116.271 11.6987 116.119C11.1566 114.625 10.7626 113.087 10.5226 111.527C10.4966 111.292 10.5625 111.06 10.7067 110.877C10.8508 110.695 11.062 110.578 11.2962 110.551C11.5304 110.523 11.7695 110.586 11.9638 110.728C12.158 110.87 12.2924 111.079 12.3388 111.312C12.5655 112.743 12.9327 114.154 13.4351 115.524C13.5065 115.715 13.5131 115.923 13.4539 116.113C13.3947 116.304 13.273 116.468 13.1078 116.579C12.9426 116.691 12.7431 116.743 12.5403 116.728C12.3376 116.714 12.1431 116.633 11.9869 116.499L11.9751 116.513ZM37.1955 131.182C37.0554 131.058 36.9546 130.896 36.9062 130.718C36.8399 130.484 36.8681 130.237 36.9847 130.03C37.1013 129.823 37.2969 129.673 37.529 129.613C38.9229 129.265 40.2704 128.77 41.5485 128.134C41.6554 128.072 41.7747 128.034 41.8989 128.02C42.0232 128.007 42.1498 128.019 42.2709 128.056C42.3921 128.093 42.5052 128.154 42.6034 128.235C42.7016 128.316 42.7827 128.416 42.8418 128.528C42.9009 128.64 42.9367 128.762 42.947 128.887C42.9572 129.012 42.9418 129.137 42.9016 129.253C42.8614 129.37 42.7973 129.477 42.7132 129.566C42.6291 129.656 42.5268 129.727 42.4127 129.775C41.0231 130.469 39.5575 131.011 38.0409 131.39C37.9006 131.425 37.7527 131.426 37.6094 131.393C37.4661 131.361 37.3315 131.295 37.2167 131.201L37.1955 131.182ZM10.5731 107.616C10.4656 107.521 10.3806 107.404 10.3248 107.273C10.2689 107.142 10.2437 107.001 10.2511 106.861C10.3142 105.305 10.5237 103.763 10.8768 102.256C10.9315 102.021 11.0788 101.82 11.2863 101.698C11.4938 101.576 11.7445 101.542 11.9832 101.605C12.222 101.668 12.4292 101.822 12.5593 102.032C12.6894 102.243 12.7318 102.494 12.6771 102.729C12.3485 104.123 12.1526 105.549 12.0916 106.988C12.0819 107.229 11.9763 107.454 11.7978 107.612C11.6193 107.77 11.3825 107.849 11.1394 107.832C10.9432 107.825 10.7522 107.756 10.5943 107.634L10.5731 107.616ZM45.1106 127.213L44.9976 127.115C44.8381 126.927 44.7575 126.687 44.7736 126.446C44.7897 126.206 44.9011 125.985 45.0835 125.831C45.8297 125.208 46.5233 124.526 47.158 123.79C47.4468 123.456 47.7474 123.109 47.9891 122.758C48.1324 122.566 48.3485 122.441 48.5899 122.411C48.8313 122.381 49.0783 122.448 49.2765 122.597C49.4747 122.746 49.6079 122.966 49.6468 123.207C49.6857 123.449 49.627 123.692 49.4838 123.884C49.1655 124.252 48.8825 124.651 48.5701 125.012C47.8742 125.818 47.1123 126.565 46.2918 127.246C46.1308 127.376 45.9277 127.446 45.7164 127.444C45.5051 127.441 45.2987 127.366 45.1318 127.231L45.1106 127.213ZM12.5885 98.9361C12.4387 98.8048 12.3334 98.6306 12.288 98.4392C12.2426 98.2477 12.2595 98.049 12.3362 97.8721C12.9481 96.4555 13.6813 95.0972 14.5278 93.8117C14.6575 93.6129 14.8625 93.4759 15.0984 93.4302C15.3344 93.3846 15.5822 93.434 15.7881 93.5677C15.8912 93.6351 15.9806 93.7217 16.0511 93.8225C16.1216 93.9233 16.1718 94.0363 16.1989 94.1549C16.2259 94.2735 16.2293 94.3955 16.2087 94.5138C16.1882 94.632 16.1441 94.7442 16.0791 94.8439C15.2987 96.0441 14.6183 97.3079 14.0444 98.6231C13.9502 98.8434 13.7707 99.0144 13.5451 99.0985C13.3196 99.1826 13.0665 99.1729 12.8416 99.0717C12.7595 99.0434 12.6815 99.0039 12.6097 98.9544L12.5885 98.9361ZM17.3986 91.5063C17.2114 91.3443 17.0939 91.1171 17.072 90.8748C17.0501 90.6325 17.1257 90.3948 17.282 90.2141C18.298 89.097 19.3937 88.0546 20.561 87.0944C20.6532 87.0177 20.7604 86.9604 20.8763 86.9258C20.9923 86.8912 21.1148 86.8798 21.2368 86.8925C21.3588 86.9051 21.478 86.9415 21.5876 86.9995C21.6971 87.0575 21.7948 87.136 21.8751 87.2306C21.9555 87.3251 22.0169 87.4338 22.0558 87.5504C22.0947 87.6671 22.1104 87.7894 22.102 87.9105C22.0936 88.0315 22.0612 88.1489 22.0067 88.2559C21.9523 88.3629 21.8768 88.4574 21.7845 88.534C20.6714 89.4503 19.628 90.4467 18.6623 91.5154C18.4994 91.6715 18.2814 91.759 18.0514 91.7608C17.8213 91.7625 17.596 91.6782 17.4198 91.5246L17.3986 91.5063ZM24.2376 85.8553C24.1585 85.8048 24.0871 85.7431 24.0258 85.6721C23.8932 85.464 23.8472 85.215 23.8979 84.9797C23.9487 84.7444 24.0921 84.5421 24.2965 84.4172C25.5935 83.6168 26.9446 82.9035 28.3413 82.2816C28.5578 82.2007 28.8002 82.2061 29.0189 82.2967C29.2377 82.3873 29.4164 82.5563 29.5186 82.7693C29.6209 82.9823 29.6389 83.2233 29.5691 83.443C29.4994 83.6628 29.347 83.8448 29.1431 83.952C27.816 84.5462 26.5315 85.2255 25.2974 85.9859C25.1368 86.0735 24.9516 86.1096 24.7662 86.0896C24.5808 86.0695 24.4039 85.9942 24.2588 85.8736L24.2376 85.8553ZM32.3667 82.1663C32.2438 82.0595 32.1499 81.9236 32.0944 81.772C32.0389 81.6204 32.0237 81.4584 32.0504 81.302C32.0771 81.1457 32.1447 81.0005 32.2465 80.8808C32.3483 80.761 32.4807 80.671 32.6307 80.6196C34.0714 80.1386 35.5357 79.7018 37.0057 79.3296C37.2405 79.272 37.4919 79.3105 37.7047 79.4365C37.9175 79.5625 38.0742 79.7657 38.1404 80.0014C38.2067 80.2353 38.1785 80.4825 38.0619 80.6894C37.9453 80.8963 37.7497 81.0462 37.5176 81.1066C36.0982 81.4631 34.6717 81.8849 33.2887 82.3563C33.1349 82.409 32.9682 82.4192 32.8061 82.3857C32.6439 82.3523 32.4922 82.2765 32.3667 82.1663ZM41.067 79.9719C40.9076 79.8359 40.7971 79.6521 40.753 79.4501C40.7282 79.3312 40.727 79.2094 40.7497 79.0917C40.7724 78.974 40.8185 78.8627 40.8852 78.7643C40.952 78.666 41.0381 78.5824 41.1387 78.5184C41.2392 78.4545 41.3522 78.4114 41.4711 78.3917C42.9258 78.1371 44.451 77.9437 46.0057 77.7876C46.1256 77.7764 46.2475 77.7889 46.3642 77.8243C46.481 77.8598 46.5904 77.9176 46.6861 77.9944C46.7819 78.0712 46.8622 78.1654 46.9225 78.2718C46.9827 78.3782 47.0217 78.4946 47.0372 78.6144C47.0527 78.7342 47.0445 78.8551 47.0129 78.97C46.9813 79.085 46.9271 79.1919 46.8533 79.2845C46.7794 79.3772 46.6874 79.4538 46.5825 79.51C46.4777 79.5662 46.362 79.6009 46.242 79.6121C44.7451 79.7586 43.2657 79.956 41.8429 80.2023C41.7065 80.2242 41.5658 80.2148 41.4315 80.1749C41.2971 80.1349 41.1725 80.0656 41.067 79.9719ZM50.0476 79.0803C49.9057 78.959 49.8022 78.7995 49.7503 78.6223C49.6984 78.4452 49.7006 78.2585 49.7565 78.0863C49.8124 77.9142 49.9196 77.7645 50.064 77.6565C50.2085 77.5486 50.3837 77.4873 50.5671 77.4807C51.9815 77.4297 53.4761 77.4002 55.1295 77.4011C55.3738 77.4007 55.6116 77.4969 55.7907 77.6686C55.9697 77.8403 56.0754 78.0733 56.0844 78.3165C56.0934 78.5597 56.005 78.793 55.8387 78.9652C55.6723 79.1375 55.4417 79.2344 55.1974 79.2348C53.5699 79.2325 52.0942 79.2545 50.6998 79.3109C50.5781 79.3154 50.4559 79.2957 50.3403 79.2529C50.2247 79.2102 50.118 79.1452 50.0264 79.0619L50.0476 79.0803ZM59.1063 79.0544C59.0062 78.9676 58.925 78.8611 58.8683 78.7422C58.8115 78.6233 58.7804 78.4945 58.7771 78.3646C58.7726 78.1221 58.8651 77.8911 59.0341 77.7225C59.2032 77.5538 59.4351 77.4612 59.6788 77.465L60.7022 77.4807L64.2034 77.5432C64.4404 77.5557 64.6666 77.6585 64.8349 77.8303C65.0032 78.0021 65.1006 78.2296 65.1068 78.4654C65.1129 78.7012 65.0274 78.927 64.868 79.0958C64.7087 79.2646 64.4877 79.3634 64.2513 79.3715L60.7313 79.3165L59.7138 79.294C59.4914 79.2889 59.2756 79.2037 59.1063 79.0544ZM68.1732 79.119C68.0304 78.997 67.9264 78.8363 67.8748 78.6579C67.8231 78.4794 67.8263 78.2915 67.8838 78.1187C67.9413 77.9459 68.0505 77.7962 68.1971 77.6891C68.3438 77.5821 68.521 77.5227 68.7057 77.5187C70.3227 77.4761 71.7737 77.3971 73.154 77.257C73.2745 77.2456 73.397 77.2582 73.5142 77.294C73.6315 77.3298 73.7413 77.3881 73.8373 77.4656C73.9332 77.5431 74.0135 77.6382 74.0733 77.7454C74.1332 77.8526 74.1716 77.9698 74.1862 78.0903C74.216 78.3313 74.149 78.5709 73.9999 78.7567C73.8507 78.9424 73.6316 79.0593 73.3904 79.0816C71.9711 79.2238 70.4684 79.3056 68.8125 79.3504C68.5805 79.3554 68.3521 79.2727 68.1732 79.119ZM77.1397 78.2151C76.9869 78.083 76.8796 77.9065 76.8339 77.7124C76.7798 77.4743 76.8223 77.2279 76.9518 77.0273C77.0814 76.8267 77.2875 76.6883 77.5249 76.6424C78.9622 76.3602 80.3789 75.9947 81.7679 75.5478C81.8837 75.4961 82.0101 75.4696 82.1387 75.47C82.2673 75.4703 82.3954 75.4975 82.5146 75.5499C82.6339 75.6022 82.7416 75.6785 82.8309 75.7737C82.9202 75.869 82.9891 75.9812 83.033 76.103C83.077 76.2248 83.0951 76.3535 83.0861 76.4809C83.0772 76.6082 83.0414 76.7313 82.981 76.8422C82.9207 76.9531 82.8372 77.0494 82.7359 77.1247C82.6346 77.2001 82.5177 77.2529 82.3929 77.2798C80.9379 77.7495 79.4531 78.1317 77.9462 78.4244C77.8069 78.454 77.6614 78.4505 77.5213 78.4142C77.3813 78.3778 77.2506 78.3097 77.1397 78.2151ZM85.639 75.4539C85.5427 75.3735 85.4648 75.2735 85.4108 75.1611C85.2997 74.9416 85.2792 74.6902 85.3538 74.4621C85.4284 74.2341 85.592 74.048 85.8087 73.9448C87.12 73.3228 88.3914 72.6249 89.6168 71.8546C89.717 71.7911 89.8296 71.7484 89.948 71.7288C90.0664 71.7093 90.1884 71.7133 90.3069 71.7406C90.4254 71.7679 90.5382 71.818 90.6388 71.888C90.7394 71.958 90.8258 72.0466 90.8931 72.1486C90.9605 72.2507 91.0074 72.3642 91.0312 72.4828C91.0551 72.6014 91.0554 72.7226 91.0321 72.8397C91.0088 72.9567 90.9624 73.0672 90.8956 73.1649C90.8287 73.2625 90.7427 73.3454 90.6424 73.4089C89.3561 74.2203 88.0204 74.9542 86.6423 75.607C86.4817 75.6812 86.3012 75.7062 86.1229 75.679C85.9446 75.6518 85.7764 75.5735 85.639 75.4539Z" fill="#E6EAF0"/>
</svg>
