<svg width="254" height="312" viewBox="0 0 254 312" fill="none" xmlns="http://www.w3.org/2000/svg">
<path d="M0 4.78481V3.02007H2.98368V0H4.803V3.02007H7.78668V4.78481H4.803V7.91403H2.98368V4.78481H0Z" fill="#7B56BD"/>
<path d="M27.2898 4.78481V3.02007H30.2734V0H32.0928V3.02007H35.0765V4.78481H32.0928V7.91403H30.2734V4.78481H27.2898Z" fill="#7B56BD"/>
<path d="M54.5795 4.78481V3.02007H57.5632V0H59.3825V3.02007H62.3662V4.78481H59.3825V7.91403H57.5632V4.78481H54.5795Z" fill="#7B56BD"/>
<path d="M81.8693 4.78481V3.02007H84.853V0H86.6723V3.02007H89.656V4.78481H86.6723V7.91403H84.853V4.78481H81.8693Z" fill="#7B56BD"/>
<path d="M109.159 4.78481V3.02007H112.143V0H113.962V3.02007H116.946V4.78481H113.962V7.91403H112.143V4.78481H109.159Z" fill="#7B56BD"/>
<path d="M136.449 4.78481V3.02007H139.433V0H141.252V3.02007H144.236V4.78481H141.252V7.91403H139.433V4.78481H136.449Z" fill="#7B56BD"/>
<path d="M163.739 4.78481V3.02007H166.722V0H168.542V3.02007H171.525V4.78481H168.542V7.91403H166.722V4.78481H163.739Z" fill="#7B56BD"/>
<path d="M191.028 4.78481V3.02007H194.012V0H195.831V3.02007H198.815V4.78481H195.831V7.91403H194.012V4.78481H191.028Z" fill="#7B56BD"/>
<path d="M218.318 4.78481V3.02007H221.302V0H223.121V3.02007H226.105V4.78481H223.121V7.91403H221.302V4.78481H218.318Z" fill="#7B56BD"/>
<path d="M245.608 4.78481V3.02007H248.592V0H250.411V3.02007H253.395V4.78481H250.411V7.91403H248.592V4.78481H245.608Z" fill="#7B56BD"/>
<path d="M0 38.5721V36.8074H2.98368V33.7873H4.803V36.8074H7.78668V38.5721H4.803V41.7014H2.98368V38.5721H0Z" fill="#7B56BD"/>
<path d="M27.2898 38.5721V36.8074H30.2734V33.7873H32.0928V36.8074H35.0765V38.5721H32.0928V41.7014H30.2734V38.5721H27.2898Z" fill="#7B56BD"/>
<path d="M54.5795 38.5721V36.8074H57.5632V33.7873H59.3825V36.8074H62.3662V38.5721H59.3825V41.7014H57.5632V38.5721H54.5795Z" fill="#7B56BD"/>
<path d="M81.8693 38.5721V36.8074H84.853V33.7873H86.6723V36.8074H89.656V38.5721H86.6723V41.7014H84.853V38.5721H81.8693Z" fill="#7B56BD"/>
<path d="M109.159 38.5721V36.8074H112.143V33.7873H113.962V36.8074H116.946V38.5721H113.962V41.7014H112.143V38.5721H109.159Z" fill="#7B56BD"/>
<path d="M136.449 38.5721V36.8074H139.433V33.7873H141.252V36.8074H144.236V38.5721H141.252V41.7014H139.433V38.5721H136.449Z" fill="#7B56BD"/>
<path d="M163.739 38.5721V36.8074H166.722V33.7873H168.542V36.8074H171.525V38.5721H168.542V41.7014H166.722V38.5721H163.739Z" fill="#7B56BD"/>
<path d="M191.028 38.5721V36.8074H194.012V33.7873H195.831V36.8074H198.815V38.5721H195.831V41.7014H194.012V38.5721H191.028Z" fill="#7B56BD"/>
<path d="M218.318 38.5721V36.8074H221.302V33.7873H223.121V36.8074H226.105V38.5721H223.121V41.7014H221.302V38.5721H218.318Z" fill="#7B56BD"/>
<path d="M245.608 38.5721V36.8074H248.592V33.7873H250.411V36.8074H253.395V38.5721H250.411V41.7014H248.592V38.5721H245.608Z" fill="#7B56BD"/>
<path d="M0 72.3595V70.5947H2.98368V67.5747H4.803V70.5947H7.78668V72.3595H4.803V75.4887H2.98368V72.3595H0Z" fill="#7B56BD"/>
<path d="M27.2898 72.3595V70.5947H30.2734V67.5747H32.0928V70.5947H35.0765V72.3595H32.0928V75.4887H30.2734V72.3595H27.2898Z" fill="#7B56BD"/>
<path d="M54.5795 72.3595V70.5947H57.5632V67.5747H59.3825V70.5947H62.3662V72.3595H59.3825V75.4887H57.5632V72.3595H54.5795Z" fill="#7B56BD"/>
<path d="M81.8693 72.3595V70.5947H84.853V67.5747H86.6723V70.5947H89.656V72.3595H86.6723V75.4887H84.853V72.3595H81.8693Z" fill="#7B56BD"/>
<path d="M109.159 72.3595V70.5947H112.143V67.5747H113.962V70.5947H116.946V72.3595H113.962V75.4887H112.143V72.3595H109.159Z" fill="#7B56BD"/>
<path d="M136.449 72.3595V70.5947H139.433V67.5747H141.252V70.5947H144.236V72.3595H141.252V75.4887H139.433V72.3595H136.449Z" fill="#7B56BD"/>
<path d="M163.739 72.3595V70.5947H166.722V67.5747H168.542V70.5947H171.525V72.3595H168.542V75.4887H166.722V72.3595H163.739Z" fill="#7B56BD"/>
<path d="M191.028 72.3595V70.5947H194.012V67.5747H195.831V70.5947H198.815V72.3595H195.831V75.4887H194.012V72.3595H191.028Z" fill="#7B56BD"/>
<path d="M218.318 72.3595V70.5947H221.302V67.5747H223.121V70.5947H226.105V72.3595H223.121V75.4887H221.302V72.3595H218.318Z" fill="#7B56BD"/>
<path d="M245.608 72.3595V70.5947H248.592V67.5747H250.411V70.5947H253.395V72.3595H250.411V75.4887H248.592V72.3595H245.608Z" fill="#7B56BD"/>
<path d="M0 106.147V104.382H2.98368V101.362H4.803V104.382H7.78668V106.147H4.803V109.276H2.98368V106.147H0Z" fill="#7B56BD"/>
<path d="M27.2898 106.147V104.382H30.2734V101.362H32.0928V104.382H35.0765V106.147H32.0928V109.276H30.2734V106.147H27.2898Z" fill="#7B56BD"/>
<path d="M54.5795 106.147V104.382H57.5632V101.362H59.3825V104.382H62.3662V106.147H59.3825V109.276H57.5632V106.147H54.5795Z" fill="#7B56BD"/>
<path d="M81.8693 106.147V104.382H84.853V101.362H86.6723V104.382H89.656V106.147H86.6723V109.276H84.853V106.147H81.8693Z" fill="#7B56BD"/>
<path d="M109.159 106.147V104.382H112.143V101.362H113.962V104.382H116.946V106.147H113.962V109.276H112.143V106.147H109.159Z" fill="#7B56BD"/>
<path d="M136.449 106.147V104.382H139.433V101.362H141.252V104.382H144.236V106.147H141.252V109.276H139.433V106.147H136.449Z" fill="#7B56BD"/>
<path d="M163.739 106.147V104.382H166.722V101.362H168.542V104.382H171.525V106.147H168.542V109.276H166.722V106.147H163.739Z" fill="#7B56BD"/>
<path d="M191.028 106.147V104.382H194.012V101.362H195.831V104.382H198.815V106.147H195.831V109.276H194.012V106.147H191.028Z" fill="#7B56BD"/>
<path d="M218.318 106.147V104.382H221.302V101.362H223.121V104.382H226.105V106.147H223.121V109.276H221.302V106.147H218.318Z" fill="#7B56BD"/>
<path d="M245.608 106.147V104.382H248.592V101.362H250.411V104.382H253.395V106.147H250.411V109.276H248.592V106.147H245.608Z" fill="#7B56BD"/>
<path d="M0 139.934V138.169H2.98368V135.149H4.803V138.169H7.78668V139.934H4.803V143.063H2.98368V139.934H0Z" fill="#7B56BD"/>
<path d="M27.2898 139.934V138.169H30.2734V135.149H32.0928V138.169H35.0765V139.934H32.0928V143.063H30.2734V139.934H27.2898Z" fill="#7B56BD"/>
<path d="M54.5795 139.934V138.169H57.5632V135.149H59.3825V138.169H62.3662V139.934H59.3825V143.063H57.5632V139.934H54.5795Z" fill="#7B56BD"/>
<path d="M81.8693 139.934V138.169H84.853V135.149H86.6723V138.169H89.656V139.934H86.6723V143.063H84.853V139.934H81.8693Z" fill="#7B56BD"/>
<path d="M109.159 139.934V138.169H112.143V135.149H113.962V138.169H116.946V139.934H113.962V143.063H112.143V139.934H109.159Z" fill="#7B56BD"/>
<path d="M136.449 139.934V138.169H139.433V135.149H141.252V138.169H144.236V139.934H141.252V143.063H139.433V139.934H136.449Z" fill="#7B56BD"/>
<path d="M163.739 139.934V138.169H166.722V135.149H168.542V138.169H171.525V139.934H168.542V143.063H166.722V139.934H163.739Z" fill="#7B56BD"/>
<path d="M191.028 139.934V138.169H194.012V135.149H195.831V138.169H198.815V139.934H195.831V143.063H194.012V139.934H191.028Z" fill="#7B56BD"/>
<path d="M218.318 139.934V138.169H221.302V135.149H223.121V138.169H226.105V139.934H223.121V143.063H221.302V139.934H218.318Z" fill="#7B56BD"/>
<path d="M245.608 139.934V138.169H248.592V135.149H250.411V138.169H253.395V139.934H250.411V143.063H248.592V139.934H245.608Z" fill="#7B56BD"/>
<path d="M0 173.721V171.957H2.98368V168.937H4.803V171.957H7.78668V173.721H4.803V176.851H2.98368V173.721H0Z" fill="#7B56BD"/>
<path d="M27.2898 173.721V171.957H30.2734V168.937H32.0928V171.957H35.0765V173.721H32.0928V176.851H30.2734V173.721H27.2898Z" fill="#7B56BD"/>
<path d="M54.5795 173.721V171.957H57.5632V168.937H59.3825V171.957H62.3662V173.721H59.3825V176.851H57.5632V173.721H54.5795Z" fill="#7B56BD"/>
<path d="M81.8693 173.721V171.957H84.853V168.937H86.6723V171.957H89.656V173.721H86.6723V176.851H84.853V173.721H81.8693Z" fill="#7B56BD"/>
<path d="M109.159 173.721V171.957H112.143V168.937H113.962V171.957H116.946V173.721H113.962V176.851H112.143V173.721H109.159Z" fill="#7B56BD"/>
<path d="M136.449 173.721V171.957H139.433V168.937H141.252V171.957H144.236V173.721H141.252V176.851H139.433V173.721H136.449Z" fill="#7B56BD"/>
<path d="M163.739 173.721V171.957H166.722V168.937H168.542V171.957H171.525V173.721H168.542V176.851H166.722V173.721H163.739Z" fill="#7B56BD"/>
<path d="M191.028 173.721V171.957H194.012V168.937H195.831V171.957H198.815V173.721H195.831V176.851H194.012V173.721H191.028Z" fill="#7B56BD"/>
<path d="M218.318 173.721V171.957H221.302V168.937H223.121V171.957H226.105V173.721H223.121V176.851H221.302V173.721H218.318Z" fill="#7B56BD"/>
<path d="M245.608 173.721V171.957H248.592V168.937H250.411V171.957H253.395V173.721H250.411V176.851H248.592V173.721H245.608Z" fill="#7B56BD"/>
<path d="M0 207.509V205.744H2.98368V202.724H4.803V205.744H7.78668V207.509H4.803V210.638H2.98368V207.509H0Z" fill="#7B56BD"/>
<path d="M27.2898 207.509V205.744H30.2734V202.724H32.0928V205.744H35.0765V207.509H32.0928V210.638H30.2734V207.509H27.2898Z" fill="#7B56BD"/>
<path d="M54.5795 207.509V205.744H57.5632V202.724H59.3825V205.744H62.3662V207.509H59.3825V210.638H57.5632V207.509H54.5795Z" fill="#7B56BD"/>
<path d="M81.8693 207.509V205.744H84.853V202.724H86.6723V205.744H89.656V207.509H86.6723V210.638H84.853V207.509H81.8693Z" fill="#7B56BD"/>
<path d="M109.159 207.509V205.744H112.143V202.724H113.962V205.744H116.946V207.509H113.962V210.638H112.143V207.509H109.159Z" fill="#7B56BD"/>
<path d="M136.449 207.509V205.744H139.433V202.724H141.252V205.744H144.236V207.509H141.252V210.638H139.433V207.509H136.449Z" fill="#7B56BD"/>
<path d="M163.739 207.509V205.744H166.722V202.724H168.542V205.744H171.525V207.509H168.542V210.638H166.722V207.509H163.739Z" fill="#7B56BD"/>
<path d="M191.028 207.509V205.744H194.012V202.724H195.831V205.744H198.815V207.509H195.831V210.638H194.012V207.509H191.028Z" fill="#7B56BD"/>
<path d="M218.318 207.509V205.744H221.302V202.724H223.121V205.744H226.105V207.509H223.121V210.638H221.302V207.509H218.318Z" fill="#7B56BD"/>
<path d="M245.608 207.509V205.744H248.592V202.724H250.411V205.744H253.395V207.509H250.411V210.638H248.592V207.509H245.608Z" fill="#7B56BD"/>
<path d="M0 241.296V239.531H2.98368V236.511H4.803V239.531H7.78668V241.296H4.803V244.425H2.98368V241.296H0Z" fill="#7B56BD"/>
<path d="M27.2898 241.296V239.531H30.2734V236.511H32.0928V239.531H35.0765V241.296H32.0928V244.425H30.2734V241.296H27.2898Z" fill="#7B56BD"/>
<path d="M54.5795 241.296V239.531H57.5632V236.511H59.3825V239.531H62.3662V241.296H59.3825V244.425H57.5632V241.296H54.5795Z" fill="#7B56BD"/>
<path d="M81.8693 241.296V239.531H84.853V236.511H86.6723V239.531H89.656V241.296H86.6723V244.425H84.853V241.296H81.8693Z" fill="#7B56BD"/>
<path d="M109.159 241.296V239.531H112.143V236.511H113.962V239.531H116.946V241.296H113.962V244.425H112.143V241.296H109.159Z" fill="#7B56BD"/>
<path d="M136.449 241.296V239.531H139.433V236.511H141.252V239.531H144.236V241.296H141.252V244.425H139.433V241.296H136.449Z" fill="#7B56BD"/>
<path d="M163.739 241.296V239.531H166.722V236.511H168.542V239.531H171.525V241.296H168.542V244.425H166.722V241.296H163.739Z" fill="#7B56BD"/>
<path d="M191.028 241.296V239.531H194.012V236.511H195.831V239.531H198.815V241.296H195.831V244.425H194.012V241.296H191.028Z" fill="#7B56BD"/>
<path d="M218.318 241.296V239.531H221.302V236.511H223.121V239.531H226.105V241.296H223.121V244.425H221.302V241.296H218.318Z" fill="#7B56BD"/>
<path d="M245.608 241.296V239.531H248.592V236.511H250.411V239.531H253.395V241.296H250.411V244.425H248.592V241.296H245.608Z" fill="#7B56BD"/>
<path d="M0 275.083V273.319H2.98368V270.299H4.803V273.319H7.78668V275.083H4.803V278.213H2.98368V275.083H0Z" fill="#7B56BD"/>
<path d="M27.2898 275.083V273.319H30.2734V270.299H32.0928V273.319H35.0765V275.083H32.0928V278.213H30.2734V275.083H27.2898Z" fill="#7B56BD"/>
<path d="M54.5795 275.083V273.319H57.5632V270.299H59.3825V273.319H62.3662V275.083H59.3825V278.213H57.5632V275.083H54.5795Z" fill="#7B56BD"/>
<path d="M81.8693 275.083V273.319H84.853V270.299H86.6723V273.319H89.656V275.083H86.6723V278.213H84.853V275.083H81.8693Z" fill="#7B56BD"/>
<path d="M109.159 275.083V273.319H112.143V270.299H113.962V273.319H116.946V275.083H113.962V278.213H112.143V275.083H109.159Z" fill="#7B56BD"/>
<path d="M136.449 275.083V273.319H139.433V270.299H141.252V273.319H144.236V275.083H141.252V278.213H139.433V275.083H136.449Z" fill="#7B56BD"/>
<path d="M163.739 275.083V273.319H166.722V270.299H168.542V273.319H171.525V275.083H168.542V278.213H166.722V275.083H163.739Z" fill="#7B56BD"/>
<path d="M191.028 275.083V273.319H194.012V270.299H195.831V273.319H198.815V275.083H195.831V278.213H194.012V275.083H191.028Z" fill="#7B56BD"/>
<path d="M218.318 275.083V273.319H221.302V270.299H223.121V273.319H226.105V275.083H223.121V278.213H221.302V275.083H218.318Z" fill="#7B56BD"/>
<path d="M245.608 275.083V273.319H248.592V270.299H250.411V273.319H253.395V275.083H250.411V278.213H248.592V275.083H245.608Z" fill="#7B56BD"/>
<path d="M0 308.871V307.106H2.98368V304.086H4.803V307.106H7.78668V308.871H4.803V312H2.98368V308.871H0Z" fill="#7B56BD"/>
<path d="M27.2898 308.871V307.106H30.2734V304.086H32.0928V307.106H35.0765V308.871H32.0928V312H30.2734V308.871H27.2898Z" fill="#7B56BD"/>
<path d="M54.5795 308.871V307.106H57.5632V304.086H59.3825V307.106H62.3662V308.871H59.3825V312H57.5632V308.871H54.5795Z" fill="#7B56BD"/>
<path d="M81.8693 308.871V307.106H84.853V304.086H86.6723V307.106H89.656V308.871H86.6723V312H84.853V308.871H81.8693Z" fill="#7B56BD"/>
<path d="M109.159 308.871V307.106H112.143V304.086H113.962V307.106H116.946V308.871H113.962V312H112.143V308.871H109.159Z" fill="#7B56BD"/>
<path d="M136.449 308.871V307.106H139.433V304.086H141.252V307.106H144.236V308.871H141.252V312H139.433V308.871H136.449Z" fill="#7B56BD"/>
<path d="M163.739 308.871V307.106H166.722V304.086H168.542V307.106H171.525V308.871H168.542V312H166.722V308.871H163.739Z" fill="#7B56BD"/>
<path d="M191.028 308.871V307.106H194.012V304.086H195.831V307.106H198.815V308.871H195.831V312H194.012V308.871H191.028Z" fill="#7B56BD"/>
<path d="M218.318 308.871V307.106H221.302V304.086H223.121V307.106H226.105V308.871H223.121V312H221.302V308.871H218.318Z" fill="#7B56BD"/>
<path d="M245.608 308.871V307.106H248.592V304.086H250.411V307.106H253.395V308.871H250.411V312H248.592V308.871H245.608Z" fill="#7B56BD"/>
</svg>
